<svg width="360" height="640" viewBox="0 0 360 640" fill="none" xmlns="http://www.w3.org/2000/svg">
<g clip-path="url(#clip0_1206_549)">
<rect width="360" height="640" fill="#233B42"/>
<rect width="360" height="640" fill="#233B42"/>
<path d="M72 415C72 459.735 35.7351 496 -9 496C-53.7351 496 -90 459.735 -90 415C-90 370.265 -53.7351 334 -9 334C35.7351 334 72 370.265 72 415ZM-74.7878 415C-74.7878 451.334 -45.3336 480.788 -9 480.788C27.3336 480.788 56.7878 451.334 56.7878 415C56.7878 378.666 27.3336 349.212 -9 349.212C-45.3336 349.212 -74.7878 378.666 -74.7878 415Z" fill="#D6B763"/>
<path d="M472 679C472 736.438 425.438 783 368 783C310.562 783 264 736.438 264 679C264 621.562 310.562 575 368 575C425.438 575 472 621.562 472 679ZM293.97 679C293.97 719.885 327.115 753.03 368 753.03C408.885 753.03 442.03 719.885 442.03 679C442.03 638.115 408.885 604.97 368 604.97C327.115 604.97 293.97 638.115 293.97 679Z" fill="#D6B763"/>
</g>
<defs>
<clipPath id="clip0_1206_549">
<rect width="360" height="640" fill="white"/>
</clipPath>
</defs>
</svg>
