<svg width="1440" height="863" viewBox="0 0 1440 863" fill="none" xmlns="http://www.w3.org/2000/svg">
<g clip-path="url(#clip0_1206_505)">
<line x1="602.5" y1="559.983" x2="639.5" y2="559.983" stroke="#416D7A" stroke-width="3" stroke-linecap="round"/>
<path d="M1384 504L1396 492L1384 480" stroke="#9FC1CA" stroke-width="4" stroke-linecap="round" stroke-linejoin="round"/>
<path d="M57 504L45 492L57 480" stroke="#9FC1CA" stroke-width="4" stroke-linecap="round" stroke-linejoin="round"/>
<rect x="0.5" y="0.5" width="1439" height="874" fill="#233B42"/>
<rect x="0.5" y="0.5" width="1439" height="874" stroke="black"/>
<rect x="0.5" y="0.5" width="1439" height="874" stroke="black" stroke-opacity="0.2"/>
<path d="M188 874.5C188 967.56 112.56 1043 19.5 1043C-73.56 1043 -149 967.56 -149 874.5C-149 781.44 -73.56 706 19.5 706C112.56 706 188 781.44 188 874.5ZM-106.828 874.5C-106.828 944.269 -50.269 1000.83 19.5 1000.83C89.269 1000.83 145.828 944.269 145.828 874.5C145.828 804.731 89.269 748.172 19.5 748.172C-50.269 748.172 -106.828 804.731 -106.828 874.5Z" fill="#D6B763"/>
<path d="M1280 601.5C1280 674.125 1221.13 733 1148.5 733C1075.87 733 1017 674.125 1017 601.5C1017 528.875 1075.87 470 1148.5 470C1221.13 470 1280 528.875 1280 601.5ZM1041.7 601.5C1041.7 660.486 1089.51 708.304 1148.5 708.304C1207.49 708.304 1255.3 660.486 1255.3 601.5C1255.3 542.514 1207.49 494.696 1148.5 494.696C1089.51 494.696 1041.7 542.514 1041.7 601.5Z" fill="#D6B763"/>
<path d="M1588 974C1588 1059.05 1519.05 1128 1434 1128C1348.95 1128 1280 1059.05 1280 974C1280 888.948 1348.95 820 1434 820C1519.05 820 1588 888.948 1588 974ZM1324.38 974C1324.38 1034.54 1373.46 1083.62 1434 1083.62C1494.54 1083.62 1543.62 1034.54 1543.62 974C1543.62 913.458 1494.54 864.379 1434 864.379C1373.46 864.379 1324.38 913.458 1324.38 974Z" fill="#D6B763"/>
</g>
<defs>
<clipPath id="clip0_1206_505">
<rect width="1440" height="863" fill="white"/>
</clipPath>
</defs>
</svg>
